<?xml version="1.0" encoding="UTF-8"?>
<svg width="639px" height="300px" viewBox="0 0 639 300" version="1.1" xmlns="http://www.w3.org/2000/svg" xmlns:xlink="http://www.w3.org/1999/xlink">
    <!-- Generator: Sketch 55.1 (78136) - https://sketchapp.com -->
    <title>DTL_RecruitmentFINAL</title>
    <desc>Created with Sketch.</desc>
    <defs>
        <path d="M175,14.4337567 L254.903811,60.5662433 C270.373864,69.497883 279.903811,86.004234 279.903811,103.867513 L279.903811,196.132487 C279.903811,213.995766 270.373864,230.502117 254.903811,239.433757 L175,285.566243 C159.529946,294.497883 140.470054,294.497883 125,285.566243 L45.0961894,239.433757 C29.6261356,230.502117 20.0961894,213.995766 20.0961894,196.132487 L20.0961894,103.867513 C20.0961894,86.004234 29.6261356,69.497883 45.0961894,60.5662433 L125,14.4337567 C140.470054,5.50211698 159.529946,5.50211698 175,14.4337567 Z" id="path-1"></path>
        <filter x="0.0%" y="-4.1%" width="99.9%" height="108.2%" filterUnits="objectBoundingBox" id="filter-2">
            <feOffset dx="16" dy="-25" in="SourceAlpha" result="shadowOffsetInner1"></feOffset>
            <feComposite in="shadowOffsetInner1" in2="SourceAlpha" operator="arithmetic" k2="-1" k3="1" result="shadowInnerInner1"></feComposite>
            <feColorMatrix values="0 0 0 0 0   0 0 0 0 0   0 0 0 0 0  0 0 0 0.05 0" type="matrix" in="shadowInnerInner1"></feColorMatrix>
        </filter>
        <path d="M53.1594385,33.3897456 C56.5727448,28.3247759 63.7050643,25 76,25 C88.3621193,25 95.5050478,28.3612105 98.8961829,33.4729312 C110.509523,31.7967302 128.393153,34.6186295 137.066209,41.2638118 C150.751366,51.7491994 156.581334,68.4776793 149.882932,80.0796521 C144.711114,89.0375032 111.619076,77.8986361 96.0591984,59.2125809 C95.273431,60.5846151 94.4165602,61.9417466 93.5,63.2714469 C94.4713632,66.0047017 95.1288241,69.3357305 95.47464,73 L57.2108428,73 C57.416234,69.3357305 57.8536868,66.0047017 58.5,63.2714469 C57.6877624,62.0930928 56.9223999,60.8931965 56.2118558,59.680477 C40.4942477,78.0838043 7.91123393,88.9624804 2.78273058,80.0796521 C-3.91567151,68.4776793 1.91429676,51.7491994 15.5994532,41.2638118 C24.1220338,34.7339222 41.5383567,31.8958 53.1594385,33.3897456 Z M75.5,23 C68.2512627,23 58,17.1555009 58,9.94594595 C58,2.73639097 68.2512627,0 75.5,0 C82.7487373,0 93,2.73639097 93,9.94594595 C93,17.1555009 82.7487373,23 75.5,23 Z M57.1255774,81 L95.745555,81 C95.6340759,86.2744676 94.98313,91.8101449 93.7978976,97 L58.9762475,97 C57.8921951,91.8101449 57.2930519,86.2744676 57.1255774,81 Z M61.1616876,105 L91.41483,105 C88.1236993,113.676981 82.9741321,120 76,120 C69.0258679,120 64.1958012,113.676981 61.1616876,105 Z" id="path-3"></path>
        <filter x="-1.6%" y="-2.1%" width="103.3%" height="104.2%" filterUnits="objectBoundingBox" id="filter-4">
            <feOffset dx="5" dy="-4" in="SourceAlpha" result="shadowOffsetInner1"></feOffset>
            <feComposite in="shadowOffsetInner1" in2="SourceAlpha" operator="arithmetic" k2="-1" k3="1" result="shadowInnerInner1"></feComposite>
            <feColorMatrix values="0 0 0 0 1   0 0 0 0 1   0 0 0 0 1  0 0 0 0.08 0" type="matrix" in="shadowInnerInner1"></feColorMatrix>
        </filter>
    </defs>
    <g id="Page-1" stroke="none" stroke-width="1" fill="none" fill-rule="evenodd">
        <g id="LOGO" transform="translate(-410.000000, -350.000000)">
            <g id="DTL_RecruitmentFINAL" transform="translate(398.000000, 350.000000)">
                <g id="Polygon" stroke-linejoin="round">
                    <use fill="#E55E3F" fill-rule="evenodd" xlink:href="#path-1"></use>
                    <use fill="black" fill-opacity="1" filter="url(#filter-2)" xlink:href="#path-1"></use>
                    <use stroke="#1F1F1F" stroke-width="15" xlink:href="#path-1"></use>
                </g>
                <g id="Group-2" transform="translate(307.000000, 82.000000)" fill="#1F1F1F" fill-rule="nonzero">
                    <path d="M0,68.5674419 L0,2.83255814 C0,2.05115888 0.341741866,1.3837237 1.02523585,0.830232558 C1.70872983,0.276741419 2.60376805,0 3.71037736,0 L20.9929245,0 C27.3722017,0 32.4820563,1.70928523 36.3226415,5.12790698 C40.1632268,8.54652872 42.0834906,13.9348469 42.0834906,21.2930233 L42.0834906,50.1069767 C42.0834906,57.4651531 40.1632268,62.8534713 36.3226415,66.272093 C32.4820563,69.6907148 27.3722017,71.4 20.9929245,71.4 L3.71037736,71.4 C2.60376805,71.4 1.70872983,71.1232586 1.02523585,70.5697674 C0.341741866,70.0162763 0,69.3488411 0,68.5674419 Z M8.20188679,63.9767442 L20.9929245,63.9767442 C25.0938884,63.9767442 28.2672058,62.8209418 30.5129717,60.5093023 C32.7587376,58.1976629 33.8816038,54.7302557 33.8816038,50.1069767 L33.8816038,21.2930233 C33.8816038,16.6697443 32.7587376,13.2023371 30.5129717,10.8906977 C28.2672058,8.57905821 25.0938884,7.42325581 20.9929245,7.42325581 L8.20188679,7.42325581 L8.20188679,63.9767442 Z M69.2929245,3.71162791 C69.2929245,2.73487884 69.5532993,1.87209677 70.0740566,1.12325581 C70.5948139,0.37441486 71.3108445,0 72.2221698,0 L111.962264,0 C112.873589,0 113.58962,0.37441486 114.110377,1.12325581 C114.631135,1.87209677 114.891509,2.73487884 114.891509,3.71162791 C114.891509,4.75349358 114.631135,5.66511237 114.110377,6.44651163 C113.58962,7.22791088 112.873589,7.61860465 111.962264,7.61860465 L96.2419811,7.61860465 L96.2419811,68.4697674 C96.2419811,69.3813999 95.8351456,70.0976718 95.0214623,70.6186047 C94.207779,71.1395375 93.247647,71.4 92.1410377,71.4 C91.0344284,71.4 90.0742965,71.1395375 89.2606132,70.6186047 C88.4469299,70.0976718 88.0400943,69.3813999 88.0400943,68.4697674 L88.0400943,7.61860465 L72.2221698,7.61860465 C71.3108445,7.61860465 70.5948139,7.24418979 70.0740566,6.49534884 C69.5532993,5.74650788 69.2929245,4.81861019 69.2929245,3.71162791 Z M144.346698,68.4697674 L144.346698,2.83255814 C144.346698,1.92092567 144.753534,1.22093267 145.567217,0.73255814 C146.3809,0.244183605 147.341032,0 148.447642,0 C149.554251,0 150.514383,0.244183605 151.328066,0.73255814 C152.141749,1.22093267 152.548585,1.92092567 152.548585,2.83255814 L152.548585,63.9767442 L179.204717,63.9767442 C180.050948,63.9767442 180.701885,64.351159 181.157547,65.1 C181.61321,65.848841 181.841038,66.711623 181.841038,67.6883721 C181.841038,68.6651212 181.61321,69.5279032 181.157547,70.2767442 C180.701885,71.0255851 180.050948,71.4 179.204717,71.4 L148.057075,71.4 C147.080655,71.4 146.218164,71.1395375 145.469575,70.6186047 C144.720987,70.0976718 144.346698,69.3813999 144.346698,68.4697674 Z" id="DTL"></path>
                    <path d="M0,137.330233 L0,92.5302326 C0,92.1395329 0.130187377,91.8139548 0.390566038,91.5534884 C0.650944698,91.293022 0.998111038,91.1627907 1.43207547,91.1627907 L12.5632075,91.1627907 C16.6424732,91.1627907 19.9514024,92.1503777 22.4900943,94.1255814 C25.0287863,96.1007851 26.2981132,99.3240087 26.2981132,103.795349 C26.2981132,111.088409 22.7613561,115.234104 15.6877358,116.232558 L26.1028302,136.418605 C26.2330195,136.679071 26.2981132,136.939534 26.2981132,137.2 C26.2981132,137.634111 26.135379,138.013952 25.8099057,138.339535 C25.4844323,138.665118 25.0613234,138.827907 24.540566,138.827907 C24.0198087,138.827907 23.3471739,138.068225 22.5226415,136.548837 L12.3028302,116.55814 L3.25471698,116.55814 L3.25471698,137.330233 C3.25471698,138.285276 2.71226958,138.762791 1.62735849,138.762791 C0.542447406,138.762791 0,138.285276 0,137.330233 Z M3.25471698,113.562791 L12.5632075,113.562791 C19.5500349,113.562791 23.0433962,110.328715 23.0433962,103.860465 C23.0433962,97.4790379 19.5500349,94.2883721 12.5632075,94.2883721 L3.25471698,94.2883721 L3.25471698,113.562791 Z M35.7367925,127.106977 L35.7367925,119.35814 C35.7367925,116.14572 36.9084788,113.389159 39.2518868,111.088372 C41.5952947,108.787585 44.4160212,107.637209 47.7141509,107.637209 C50.9254878,107.637209 53.7028185,108.76588 56.0462264,111.023256 C58.3896344,113.280631 59.5613208,116.080603 59.5613208,119.423256 C59.5613208,120.595355 59.4202844,121.539531 59.1382075,122.255814 C58.8561307,122.972097 58.4113238,123.482169 57.8037736,123.786047 C57.1962234,124.089924 56.642927,124.274418 56.1438679,124.339535 C55.6448088,124.404651 54.9396272,124.437209 54.0283019,124.437209 L38.9264151,124.437209 L38.9264151,127.172093 C38.9264151,129.90699 39.9028204,132.099217 41.8556604,133.748837 C43.8085003,135.398458 46.3254563,136.223256 49.4066038,136.223256 C50.9688757,136.223256 52.2924474,136.006204 53.3773585,135.572093 C54.4622696,135.137982 55.2867896,134.703878 55.8509434,134.269767 C56.4150972,133.835657 56.8490551,133.618605 57.1528302,133.618605 C57.5433982,133.618605 57.8905645,133.792246 58.1943396,134.139535 C58.4981147,134.486823 58.65,134.834107 58.65,135.181395 C58.65,136.006206 57.7495373,136.874414 55.9485849,137.786047 C54.1476325,138.697679 51.9235981,139.153488 49.2764151,139.153488 C45.2839423,139.153488 42.0292579,138.046523 39.5122642,135.832558 C36.9952704,133.618594 35.7367925,130.710096 35.7367925,127.106977 Z M38.9264151,121.767442 L52.7915094,121.767442 C54.2669885,121.767442 55.2433938,121.615505 55.7207547,121.311628 C56.1981156,121.00775 56.4367925,120.378299 56.4367925,119.423256 C56.4367925,117.122469 55.6122724,115.060474 53.9632075,113.237209 C52.3141427,111.413944 50.2311447,110.502326 47.7141509,110.502326 C45.2839501,110.502326 43.211801,111.348829 41.4976415,113.04186 C39.783482,114.734892 38.9264151,116.753477 38.9264151,119.097674 L38.9264151,121.767442 Z M70.0415094,127.106977 L70.0415094,119.683721 C70.0415094,116.124013 71.0721595,113.226368 73.1334906,110.990698 C75.1948216,108.755028 78.243376,107.637209 82.2792453,107.637209 C84.7528426,107.637209 86.8358406,108.082166 88.5283019,108.972093 C90.2207632,109.86202 91.0669811,110.741081 91.0669811,111.609302 C91.0669811,112.000002 90.9150959,112.358138 90.6113208,112.683721 C90.3075457,113.009304 89.9603793,113.172093 89.5698113,113.172093 C89.3528291,113.172093 88.9731159,112.965894 88.4306604,112.553488 C87.8882048,112.141083 87.0962316,111.717832 86.054717,111.283721 C85.0132023,110.84961 83.7764223,110.632558 82.3443396,110.632558 C79.4367779,110.632558 77.1910457,111.435651 75.6070755,113.04186 C74.0231053,114.64807 73.2311321,116.862001 73.2311321,119.683721 L73.2311321,127.106977 C73.2311321,129.972107 74.0122563,132.196891 75.5745283,133.781395 C77.1368003,135.365899 79.4150794,136.15814 82.409434,136.15814 C83.9283095,136.15814 85.2301833,135.941087 86.3150943,135.506977 C87.4000054,135.072866 88.2245255,134.638762 88.7886792,134.204651 C89.352833,133.77054 89.765093,133.553488 90.0254717,133.553488 C90.4160397,133.553488 90.7523571,133.716277 91.034434,134.04186 C91.3165108,134.367443 91.4575472,134.725579 91.4575472,135.116279 C91.4575472,136.027912 90.5787824,136.928678 88.8212264,137.818605 C87.0636705,138.708532 84.8830319,139.153488 82.2792453,139.153488 C78.2867725,139.153488 75.249067,138.046523 73.1660377,135.832558 C71.0830085,133.618594 70.0415094,130.710096 70.0415094,127.106977 Z M102.458491,137.330233 L102.458491,109.330233 C102.458491,108.462011 102.97924,108.027907 104.020755,108.027907 C104.454719,108.027907 104.823583,108.147286 105.127358,108.386047 C105.431134,108.624807 105.583019,108.939533 105.583019,109.330233 L105.583019,112.651163 C106.364155,111.218597 107.524992,110.024811 109.065566,109.069767 C110.60614,108.114724 112.396216,107.637209 114.435849,107.637209 L116.779245,107.637209 C117.169813,107.637209 117.506131,107.778293 117.788208,108.060465 C118.070284,108.342637 118.211321,108.700773 118.211321,109.134884 C118.211321,109.568994 118.070284,109.92713 117.788208,110.209302 C117.506131,110.491474 117.169813,110.632558 116.779245,110.632558 L114.435849,110.632558 C112.092441,110.632558 110.04199,111.511619 108.284434,113.269767 C106.526887,115.027916 105.648113,117.317815 105.648113,120.139535 L105.648113,137.330233 C105.648113,137.677521 105.485379,138.003099 105.159906,138.306977 C104.834432,138.610854 104.454719,138.762791 104.020755,138.762791 C103.58679,138.762791 103.217926,138.621707 102.914151,138.339535 C102.610376,138.057363 102.458491,137.720932 102.458491,137.330233 Z M127.780189,127.237209 L127.780189,109.395349 C127.780189,109.04806 127.942923,108.733335 128.268396,108.451163 C128.593868,108.168991 128.973583,108.027907 129.407547,108.027907 C129.798115,108.027907 130.15613,108.168991 130.481604,108.451163 C130.807077,108.733335 130.969811,109.04806 130.969811,109.395349 L130.969811,127.237209 C130.969811,129.581407 131.826878,131.654255 133.541038,133.455814 C135.255197,135.257373 137.305648,136.15814 139.692453,136.15814 C142.079257,136.15814 144.129708,135.257373 145.843868,133.455814 C147.558027,131.654255 148.415094,129.581407 148.415094,127.237209 L148.415094,109.330233 C148.415094,108.982944 148.577829,108.679071 148.903302,108.418605 C149.228775,108.158138 149.608488,108.027907 150.042453,108.027907 C150.476417,108.027907 150.845281,108.158138 151.149057,108.418605 C151.452832,108.679071 151.604717,108.982944 151.604717,109.330233 L151.604717,127.237209 C151.604717,130.449628 150.433031,133.238748 148.089623,135.604651 C145.746215,137.970554 142.947186,139.153488 139.692453,139.153488 C136.43772,139.153488 133.638691,137.959702 131.295283,135.572093 C128.951875,133.184484 127.780189,130.406217 127.780189,127.237209 Z M163.842453,95.9162791 C163.842453,95.3085241 164.08113,94.7767465 164.558491,94.3209302 C165.035851,93.865114 165.621695,93.6372093 166.316038,93.6372093 C166.966984,93.6372093 167.53113,93.865114 168.008491,94.3209302 C168.485851,94.7767465 168.724528,95.3085241 168.724528,95.9162791 C168.724528,96.5674451 168.485851,97.1317806 168.008491,97.6093023 C167.53113,98.0868241 166.966984,98.3255814 166.316038,98.3255814 C165.621695,98.3255814 165.035851,98.0868241 164.558491,97.6093023 C164.08113,97.1317806 163.842453,96.5674451 163.842453,95.9162791 Z M164.753774,137.330233 L164.753774,109.330233 C164.753774,108.462011 165.274523,108.027907 166.316038,108.027907 C167.400949,108.027907 167.943396,108.462011 167.943396,109.330233 L167.943396,137.330233 C167.943396,137.677521 167.780662,138.003099 167.455189,138.306977 C167.129715,138.610854 166.750002,138.762791 166.316038,138.762791 C165.882073,138.762791 165.513209,138.621707 165.209434,138.339535 C164.905659,138.057363 164.753774,137.720932 164.753774,137.330233 Z M181.287736,129.451163 L181.287736,94.4837209 C181.287736,94.0930213 181.45047,93.7674432 181.775943,93.5069767 C182.101415,93.2465103 182.459432,93.1162791 182.85,93.1162791 C183.283964,93.1162791 183.663678,93.2465103 183.989151,93.5069767 C184.314624,93.7674432 184.477358,94.0930213 184.477358,94.4837209 L184.477358,108.027907 L193.134906,108.027907 C193.482077,108.027907 193.774999,108.168991 194.013679,108.451163 C194.25236,108.733335 194.371698,109.069765 194.371698,109.460465 C194.371698,109.807754 194.241511,110.122479 193.981132,110.404651 C193.720753,110.686823 193.438681,110.827907 193.134906,110.827907 L184.477358,110.827907 L184.477358,129.451163 C184.477358,131.751949 184.97641,133.37984 185.974528,134.334884 C186.972646,135.289927 188.708478,135.767442 191.182075,135.767442 L192.809434,135.767442 C193.243398,135.767442 193.601414,135.908526 193.883491,136.190698 C194.165567,136.47287 194.306604,136.831006 194.306604,137.265116 C194.306604,137.655816 194.165567,138.003099 193.883491,138.306977 C193.601414,138.610854 193.243398,138.762791 192.809434,138.762791 L191.182075,138.762791 C184.585816,138.762791 181.287736,135.658946 181.287736,129.451163 Z M204.786792,137.330233 L204.786792,109.330233 C204.786792,108.462011 205.307542,108.027907 206.349057,108.027907 C206.783021,108.027907 207.151885,108.147286 207.45566,108.386047 C207.759435,108.624807 207.911321,108.939533 207.911321,109.330233 L207.911321,112.586047 C209.777368,109.286805 212.684886,107.637209 216.633962,107.637209 C218.760388,107.637209 220.658954,108.22325 222.329717,109.395349 C224.00048,110.567448 225.269807,112.151928 226.137736,114.148837 C227.222647,112.021695 228.654708,110.404657 230.433962,109.297674 C232.213216,108.190692 234.079245,107.637209 236.032075,107.637209 C238.983034,107.637209 241.521687,108.711617 243.648113,110.860465 C245.774539,113.009313 246.837736,115.906959 246.837736,119.553488 L246.837736,137.330233 C246.837736,137.677521 246.675002,138.003099 246.349528,138.306977 C246.024055,138.610854 245.644342,138.762791 245.210377,138.762791 C244.776413,138.762791 244.407549,138.610854 244.103774,138.306977 C243.799998,138.003099 243.648113,137.677521 243.648113,137.330233 L243.648113,119.553488 C243.648113,116.77518 242.834442,114.593806 241.207075,113.009302 C239.579709,111.424798 237.724539,110.632558 235.641509,110.632558 C233.471687,110.632558 231.551423,111.435651 229.88066,113.04186 C228.209897,114.64807 227.374528,116.710065 227.374528,119.227907 L227.374528,137.395349 C227.374528,138.306981 226.832081,138.762791 225.74717,138.762791 C224.705655,138.762791 224.184906,138.306981 224.184906,137.395349 L224.184906,119.293023 C224.184906,116.862003 223.41463,114.810861 221.874057,113.139535 C220.333483,111.468209 218.456615,110.632558 216.243396,110.632558 C214.073574,110.632558 212.15331,111.446503 210.482547,113.074419 C208.811784,114.702334 207.976415,116.862002 207.976415,119.553488 L207.976415,137.330233 C207.976415,137.677521 207.813681,138.003099 207.488208,138.306977 C207.162734,138.610854 206.783021,138.762791 206.349057,138.762791 C205.915092,138.762791 205.546228,138.621707 205.242453,138.339535 C204.938678,138.057363 204.786792,137.720932 204.786792,137.330233 Z M258.880189,127.106977 L258.880189,119.35814 C258.880189,116.14572 260.051875,113.389159 262.395283,111.088372 C264.738691,108.787585 267.559417,107.637209 270.857547,107.637209 C274.068884,107.637209 276.846215,108.76588 279.189623,111.023256 C281.533031,113.280631 282.704717,116.080603 282.704717,119.423256 C282.704717,120.595355 282.563681,121.539531 282.281604,122.255814 C281.999527,122.972097 281.55472,123.482169 280.94717,123.786047 C280.33962,124.089924 279.786323,124.274418 279.287264,124.339535 C278.788205,124.404651 278.083023,124.437209 277.171698,124.437209 L262.069811,124.437209 L262.069811,127.172093 C262.069811,129.90699 263.046217,132.099217 264.999057,133.748837 C266.951897,135.398458 269.468853,136.223256 272.55,136.223256 C274.112272,136.223256 275.435844,136.006204 276.520755,135.572093 C277.605666,135.137982 278.430186,134.703878 278.99434,134.269767 C279.558493,133.835657 279.992451,133.618605 280.296226,133.618605 C280.686794,133.618605 281.033961,133.792246 281.337736,134.139535 C281.641511,134.486823 281.793396,134.834107 281.793396,135.181395 C281.793396,136.006206 280.892934,136.874414 279.091981,137.786047 C277.291029,138.697679 275.066994,139.153488 272.419811,139.153488 C268.427339,139.153488 265.172654,138.046523 262.65566,135.832558 C260.138667,133.618594 258.880189,130.710096 258.880189,127.106977 Z M262.069811,121.767442 L275.934906,121.767442 C277.410385,121.767442 278.38679,121.615505 278.864151,121.311628 C279.341512,121.00775 279.580189,120.378299 279.580189,119.423256 C279.580189,117.122469 278.755669,115.060474 277.106604,113.237209 C275.457539,111.413944 273.374541,110.502326 270.857547,110.502326 C268.427346,110.502326 266.355197,111.348829 264.641038,113.04186 C262.926878,114.734892 262.069811,116.753477 262.069811,119.097674 L262.069811,121.767442 Z M294.291509,137.330233 L294.291509,109.330233 C294.291509,108.462011 294.812259,108.027907 295.853774,108.027907 C296.287738,108.027907 296.656602,108.147286 296.960377,108.386047 C297.264152,108.624807 297.416038,108.939533 297.416038,109.330233 L297.416038,112.586047 C298.153777,111.196892 299.282068,110.024811 300.800943,109.069767 C302.319819,108.114724 304.099046,107.637209 306.138679,107.637209 C309.30662,107.637209 312.040555,108.809291 314.340566,111.153488 C316.640578,113.497686 317.790566,116.297658 317.790566,119.553488 L317.790566,137.330233 C317.790566,138.285276 317.248119,138.762791 316.163208,138.762791 C315.121693,138.762791 314.600943,138.285276 314.600943,137.330233 L314.600943,119.553488 C314.600943,117.252702 313.733028,115.190707 311.99717,113.367442 C310.261312,111.544177 308.22171,110.632558 305.878302,110.632558 C303.665083,110.632558 301.712273,111.446503 300.019811,113.074419 C298.32735,114.702334 297.481132,116.862002 297.481132,119.553488 L297.481132,137.330233 C297.481132,137.677521 297.318398,138.003099 296.992925,138.306977 C296.667451,138.610854 296.287738,138.762791 295.853774,138.762791 C295.419809,138.762791 295.050945,138.621707 294.74717,138.339535 C294.443395,138.057363 294.291509,137.720932 294.291509,137.330233 Z M330.809434,129.451163 L330.809434,94.4837209 C330.809434,94.0930213 330.972168,93.7674432 331.297642,93.5069767 C331.623113,93.2465103 331.98113,93.1162791 332.371698,93.1162791 C332.805663,93.1162791 333.185376,93.2465103 333.510849,93.5069767 C333.836322,93.7674432 333.999057,94.0930213 333.999057,94.4837209 L333.999057,108.027907 L342.656604,108.027907 C343.003775,108.027907 343.296697,108.168991 343.535377,108.451163 C343.774058,108.733335 343.893396,109.069765 343.893396,109.460465 C343.893396,109.807754 343.763209,110.122479 343.50283,110.404651 C343.242452,110.686823 342.960379,110.827907 342.656604,110.827907 L333.999057,110.827907 L333.999057,129.451163 C333.999057,131.751949 334.498108,133.37984 335.496226,134.334884 C336.494345,135.289927 338.230176,135.767442 340.703774,135.767442 L342.331132,135.767442 C342.765097,135.767442 343.123112,135.908526 343.405189,136.190698 C343.687266,136.47287 343.828302,136.831006 343.828302,137.265116 C343.828302,137.655816 343.687266,138.003099 343.405189,138.306977 C343.123112,138.610854 342.765097,138.762791 342.331132,138.762791 L340.703774,138.762791 C334.107514,138.762791 330.809434,135.658946 330.809434,129.451163 Z" id="Recruitment"></path>
                </g>
                <g id="Group-3" transform="translate(74.000000, 94.000000)">
                    <g id="Combined-Shape">
                        <use fill="#1F1F1F" fill-rule="evenodd" xlink:href="#path-3"></use>
                        <use fill="black" fill-opacity="1" filter="url(#filter-4)" xlink:href="#path-3"></use>
                    </g>
                </g>
            </g>
        </g>
    </g>
</svg>